<svg width="512" height="512" viewBox="0 0 512 512" xmlns="http://www.w3.org/2000/svg">
  <defs>
    <radialGradient id="bodyGrad" cx="50%" cy="40%" r="60%">
      <stop offset="0%" style="stop-color:#9d6dfa;stop-opacity:1" />
      <stop offset="100%" style="stop-color:#5a32a3;stop-opacity:1" />
    </radialGradient>
    
    <linearGradient id="screenGrad" x1="0%" y1="0%" x2="0%" y2="100%">
      <stop offset="0%" style="stop-color:#222;stop-opacity:1" />
      <stop offset="100%" style="stop-color:#000;stop-opacity:1" />
    </linearGradient>

    <filter id="glow" x="-20%" y="-20%" width="140%" height="140%">
      <feGaussianBlur stdDeviation="3" result="blur" />
      <feComposite in="SourceGraphic" in2="blur" operator="over" />
    </filter>
  </defs>

  <circle cx="256" cy="256" r="240" fill="url(#bodyGrad)" />

  <rect x="106" y="176" width="300" height="160" rx="60" ry="60" fill="url(#screenGrad)" />

  <g fill="white" filter="url(#glow)">
    <rect x="180" y="215" width="8" height="8" /> <rect x="189" y="215" width="8" height="8" /> <rect x="198" y="215" width="8" height="8" />
    <rect x="180" y="224" width="8" height="8" /> <rect x="189" y="224" width="8" height="8" /> <rect x="198" y="224" width="8" height="8" />
    <rect x="180" y="233" width="8" height="8" /> <rect x="189" y="233" width="8" height="8" /> <rect x="198" y="233" width="8" height="8" />
    <rect x="180" y="242" width="8" height="8" /> <rect x="189" y="242" width="8" height="8" /> <rect x="198" y="242" width="8" height="8" />
    <rect x="180" y="251" width="8" height="8" /> <rect x="189" y="251" width="8" height="8" /> <rect x="198" y="251" width="8" height="8" />
    <rect x="180" y="260" width="8" height="8" /> <rect x="189" y="260" width="8" height="8" /> <rect x="198" y="260" width="8" height="8" />
    <rect x="180" y="269" width="8" height="8" /> <rect x="189" y="269" width="8" height="8" /> <rect x="198" y="269" width="8" height="8" />
    <rect x="180" y="278" width="8" height="8" /> <rect x="189" y="278" width="8" height="8" /> <rect x="198" y="278" width="8" height="8" />
    <rect x="180" y="287" width="8" height="8" /> <rect x="189" y="287" width="8" height="8" /> <rect x="198" y="287" width="8" height="8" />

    <rect x="306" y="215" width="8" height="8" /> <rect x="315" y="215" width="8" height="8" /> <rect x="324" y="215" width="8" height="8" />
    <rect x="306" y="224" width="8" height="8" /> <rect x="315" y="224" width="8" height="8" /> <rect x="324" y="224" width="8" height="8" />
    <rect x="306" y="233" width="8" height="8" /> <rect x="315" y="233" width="8" height="8" /> <rect x="324" y="233" width="8" height="8" />
    <rect x="306" y="242" width="8" height="8" /> <rect x="315" y="242" width="8" height="8" /> <rect x="324" y="242" width="8" height="8" />
    <rect x="306" y="251" width="8" height="8" /> <rect x="315" y="251" width="8" height="8" /> <rect x="324" y="251" width="8" height="8" />
    <rect x="306" y="260" width="8" height="8" /> <rect x="315" y="260" width="8" height="8" /> <rect x="324" y="260" width="8" height="8" />
    <rect x="306" y="269" width="8" height="8" /> <rect x="315" y="269" width="8" height="8" /> <rect x="324" y="269" width="8" height="8" />
    <rect x="306" y="278" width="8" height="8" /> <rect x="315" y="278" width="8" height="8" /> <rect x="324" y="278" width="8" height="8" />
    <rect x="306" y="287" width="8" height="8" /> <rect x="315" y="287" width="8" height="8" /> <rect x="324" y="287" width="8" height="8" />
  </g>
</svg>